#!OML:ASF X:\für Bonn\!DataBase\2005_08_11_Bastian_Final\c3d\Bastian.ASF
:FULLY-SPECIFIED
:DEGREES
64
root -20.8082 17.5933 -0.288529 87.4818 -82.303 -95.5499
lowerback 3.83805 2.28154 7.67251
upperback 2.85351 3.20957 -0.80987
thorax 1.28378 1.72404 -5.21431
lowerneck -5.83643 -7.96214 -5.77087
upperneck -8.57608 -10.1543 11.2113
head -0.791111 -5.17046 4.52491
rclavicle -9.37394e-015 -5.56597e-015
rhumerus 47.1384 9.5869 -30.769
rradius 49.8962
rwrist 6.3755
rhand -24.0778 11.5091
rfingers 7.12502
rthumb 2.40225 -18.4571
lclavicle -9.37394e-015 -5.56597e-015
lhumerus -15.6891 -13.9448 82.6222
lradius 16.6228
lwrist 14.2533
lhand -11.8723 -7.6345
lfingers 7.12502
lthumb 14.18 21.8615
rfemur 10.7037 4.08214 26.9093
rtibia 29.1501
rfoot -12.3637 -2.67253
rtoes -21.0193
lfemur -6.86862 3.83151 -12.1148
ltibia 27.4183
lfoot -4.21602 -10.0198
ltoes -8.58383
65
root -20.8432 17.5932 -0.272406 86.9598 -82.3046 -94.9788
lowerback 3.80968 2.28052 7.67864
upperback 2.85742 3.20648 -0.862292
thorax 1.30691 1.72444 -5.27101
lowerneck -6.10522 -8.00827 -5.70306
upperneck -8.52141 -10.2159 11.2571
head -0.72163 -5.19785 4.50977
rclavicle -3.91419e-014 1.90833e-014
rhumerus 47.9803 9.33541 -29.8736
rradius 48.9309
rwrist 6.2965
rhand -24.2721 11.7196
rfingers 7.12502
rthumb 2.21457 -18.2487
lclavicle -3.91419e-014 1.90833e-014
lhumerus -15.3481 -14.2152 82.5199
lradius 16.9899
lwrist 14.4352
lhand -11.9218 -7.74981
lfingers 7.12502
lthumb 14.1324 21.7496
rfemur 10.6937 4.02507 26.8364
rtibia 29.2745
rfoot -12.3011 -2.6143
rtoes -21.1453
lfemur -6.82491 4.024 -12.1447
ltibia 27.4592
lfoot -4.26904 -10.29
ltoes -8.046
66
root -20.8761 17.594 -0.255786 86.5061 -82.2655 -94.4697
lowerback 3.79065 2.28792 7.72904
upperback 2.85476 3.2167 -0.896751
thorax 1.32166 1.73149 -5.3346
lowerneck -6.34956 -8.06209 -5.66157
upperneck -8.48121 -10.2867 11.3073
head -0.658729 -5.2297 4.50243
rclavicle 2.51463e-014 -1.03368e-014
rhumerus 48.7702 9.093 -28.9672
rradius 47.9821
rwrist 6.20249
rhand -24.5027 11.9215
rfingers 7.12502
rthumb 1.99185 -18.0489
lclavicle 2.51463e-014 -1.03368e-014
lhumerus -15.0637 -14.6784 82.485
lradius 17.3816
lwrist 14.8258
lhand -12.0298 -7.80709
lfingers 7.12502
lthumb 14.0283 21.6995
rfemur 10.6742 3.96972 26.8045
rtibia 29.3847
rfoot -12.2177 -2.568
rtoes -21.3804
lfemur -6.7836 4.12118 -12.1418
ltibia 27.4984
lfoot -4.35564 -10.4646
ltoes -7.57792
67
root -20.9085 17.5944 -0.240344 86.0936 -82.2434 -94.0139
lowerback 3.78186 2.29644 7.77245
upperback 2.86228 3.22862 -0.954657
thorax 1.34265 1.74007 -5.41902
lowerneck -6.61742 -8.11455 -5.58919
upperneck -8.44088 -10.3573 11.3793
head -0.592151 -5.26236 4.49582
rclavicle -7.69669e-015 3.49861e-014
rhumerus 49.5128 8.82697 -28.1801
rradius 47.0205
rwrist 6.12139
rhand -24.7184 12.1494
rfingers 7.12502
rthumb 1.78354 -17.8229
lclavicle -7.69669e-015 3.49861e-014
lhumerus -14.7691 -15.0885 82.4148
lradius 17.7095
lwrist 15.1552
lhand -12.1532 -7.92494
lfingers 7.12502
lthumb 13.9093 21.5899
rfemur 10.6753 3.89606 26.7524
rtibia 29.4868
rfoot -12.1486 -2.4986
rtoes -21.7517
lfemur -6.73272 4.2063 -12.1599
ltibia 27.5335
lfoot -4.4523 -10.6136
ltoes -7.32286
68
root -20.9398 17.595 -0.224514 85.6983 -82.2238 -93.5643
lowerback 3.76349 2.30384 7.80435
upperback 2.86153 3.23835 -0.99839
thorax 1.35843 1.7468 -5.48194
lowerneck -6.86945 -8.16547 -5.5418
upperneck -8.38611 -10.4258 11.4317
head -0.523656 -5.29254 4.48731
rclavicle -1.50952e-015 8.74653e-015
rhumerus 50.2322 8.59735 -27.3813
rradius 46.0976
rwrist 6.03809
rhand -24.9366 12.2725
rfingers 7.12502
rthumb 1.57282 -17.7015
lclavicle -1.50952e-015 8.74653e-015
lhumerus -14.5148 -15.5599 82.3887
lradius 18.0109
lwrist 15.5175
lhand -12.3258 -8.00122
lfingers 7.12502
lthumb 13.743 21.5249
rfemur 10.6715 3.83393 26.6946
rtibia 29.5748
rfoot -12.0814 -2.44373
rtoes -21.869
lfemur -6.69537 4.26161 -12.1829
ltibia 27.5666
lfoot -4.54121 -10.7242
ltoes -6.96164
69
root -20.9701 17.5953 -0.208746 85.3545 -82.2005 -93.165
lowerback 3.75595 2.31536 7.8534
upperback 2.86328 3.25476 -1.0491
thorax 1.37339 1.75729 -5.56234
lowerneck -7.11435 -8.20611 -5.46902
upperneck -8.37343 -10.4812 11.4754
head -0.473525 -5.31808 4.47356
rclavicle -3.54955e-014 1.03368e-014
rhumerus 50.9195 8.35904 -26.6246
rradius 45.1661
rwrist 5.92322
rhand -25.1769 12.4223
rfingers 7.12502
rthumb 1.34073 -17.5532
lclavicle -3.54955e-014 1.03368e-014
lhumerus -14.2646 -15.9967 82.3527
lradius 18.2861
lwrist 15.8383
lhand -12.454 -8.05902
lfingers 7.12502
lthumb 13.6195 21.4754
rfemur 10.662 3.7641 26.6393
rtibia 29.6523
rfoot -11.989 -2.36828
rtoes -22.122
lfemur -6.66022 4.30134 -12.2079
ltibia 27.5995
lfoot -4.62693 -10.8183
ltoes -6.64458
70
root -20.9996 17.5959 -0.193692 85.0114 -82.1764 -92.7689
lowerback 3.73921 2.32704 7.89209
upperback 2.87404 3.26982 -1.09608
thorax 1.40187 1.76763 -5.6323
lowerneck -7.35012 -8.25308 -5.41139
upperneck -8.37251 -10.5439 11.5503
head -0.425359 -5.34782 4.47409
rclavicle -1.48467e-014 4.77083e-015
rhumerus 51.6038 8.11804 -25.8904
rradius 44.2637
rwrist 5.74757
rhand -25.3595 12.5026
rfingers 7.12502
rthumb 1.16437 -17.474
lclavicle -1.48467e-014 4.77083e-015
lhumerus -14.0427 -16.5275 82.3362
lradius 18.5816
lwrist 16.2463
lhand -12.6075 -8.03869
lfingers 7.12502
lthumb 13.4716 21.5056
rfemur 10.6571 3.68089 26.5807
rtibia 29.7238
rfoot -11.9188 -2.29932
rtoes -22.4679
lfemur -6.61865 4.25787 -12.2362
ltibia 27.6251
lfoot -4.7233 -10.8415
ltoes -6.28983
71
root -21.028 17.5961 -0.178146 84.6338 -82.1378 -92.3459
lowerback 3.74461 2.33631 7.9557
upperback 2.87899 3.2843 -1.13387
thorax 1.4129 1.77712 -5.70797
lowerneck -7.57307 -8.30501 -5.37216
upperneck -8.35441 -10.6134 11.6008
head -0.373713 -5.37955 4.46905
rclavicle 7.26806e-015 -9.54166e-015
rhumerus 52.2661 7.91447 -25.1247
rradius 43.3457
rwrist 5.57936
rhand -25.5531 12.5223
rfingers 7.12502
rthumb 0.977421 -17.4552
lclavicle 7.26806e-015 -9.54166e-015
lhumerus -13.8306 -16.9578 82.342
lradius 18.8229
lwrist 16.5464
lhand -12.7797 -8.01892
lfingers 7.12502
lthumb 13.3056 21.5363
rfemur 10.6585 3.59327 26.538
rtibia 29.7867
rfoot -11.8452 -2.23536
rtoes -22.6696
lfemur -6.5783 4.25145 -12.2482
ltibia 27.6523
lfoot -4.82225 -10.8974
ltoes -6.08875
72
root -21.0553 17.5971 -0.163322 84.3035 -82.0931 -91.9597
lowerback 3.74123 2.34666 8.02633
upperback 2.88469 3.29971 -1.17815
thorax 1.43071 1.78763 -5.79398
lowerneck -7.77877 -8.35213 -5.3074
upperneck -8.3631 -10.6779 11.6535
head -0.335716 -5.41076 4.46206
rclavicle -1.53685e-014 0
rhumerus 52.8953 7.70621 -24.395
rradius 42.4302
rwrist 5.41332
rhand -25.7533 12.51
rfingers 7.12502
rthumb 0.78405 -17.4683
lclavicle -1.53685e-014 0
lhumerus -13.6311 -17.4231 82.3333
lradius 19.0601
lwrist 16.8503
lhand -12.942 -7.97683
lfingers 7.12502
lthumb 13.1491 21.5886
rfemur 10.6473 3.51505 26.5058
rtibia 29.8472
rfoot -11.7774 -2.16173
rtoes -22.8475
lfemur -6.54281 4.17757 -12.2564
ltibia 27.671
lfoot -4.92617 -10.8948
ltoes -5.79011
73
root -21.0828 17.5969 -0.148855 84.0983 -82.0674 -91.7115
lowerback 3.74175 2.36478 8.07517
upperback 2.89676 3.32487 -1.22612
thorax 1.45348 1.80305 -5.87166
lowerneck -7.96896 -8.38904 -5.23751
upperneck -8.38004 -10.7293 11.7039
head -0.304785 -5.43611 4.45508
rclavicle 3.0911e-014 -2.22639e-014
rhumerus 53.4744 7.53582 -23.572
rradius 41.5729
rwrist 5.15186
rhand -25.958 12.392
rfingers 7.12502
rthumb 0.586281 -17.587
lclavicle 3.0911e-014 -2.22639e-014
lhumerus -13.4575 -17.8825 82.3254
lradius 19.3153
lwrist 17.1327
lhand -13.1089 -7.89153
lfingers 7.12502
lthumb 12.9882 21.6842
rfemur 10.6534 3.43111 26.4448
rtibia 29.8937
rfoot -11.6953 -2.07683
rtoes -23.01
lfemur -6.49521 4.12913 -12.2852
ltibia 27.6984
lfoot -5.03939 -10.8887
ltoes -5.60184
74
root -21.1083 17.5975 -0.134237 83.7723 -82.0446 -91.3409
lowerback 3.76467 2.37702 8.12923
upperback 2.90407 3.34446 -1.28126
thorax 1.45872 1.81501 -5.96113
lowerneck -8.13452 -8.42521 -5.17202
upperneck -8.41272 -10.7794 11.7761
head -0.281717 -5.46194 4.45836
rclavicle 2.86747e-014 1.11319e-014
rhumerus 54.0346 7.38081 -22.7462
rradius 40.7088
rwrist 4.86228
rhand -26.1855 12.2401
rfingers 7.12502
rthumb 0.366572 -17.7393
lclavicle 2.86747e-014 1.11319e-014
lhumerus -13.3018 -18.4012 82.3336
lradius 19.5808
lwrist 17.4656
lhand -13.2937 -7.72472
lfingers 7.12502
lthumb 12.81 21.8622
rfemur 10.6557 3.3369 26.3809
rtibia 29.9398
rfoot -11.6209 -2.00164
rtoes -23.1813
lfemur -6.45679 4.08135 -12.3184
ltibia 27.7189
lfoot -5.13489 -10.8975
ltoes -5.35323
75
root -21.1336 17.5985 -0.119618 83.6373 -81.9785 -91.147
lowerback 3.76299 2.39516 8.22286
upperback 2.91504 3.37053 -1.31115
thorax 1.48375 1.83156 -6.0451
lowerneck -8.30701 -8.47059 -5.13311
upperneck -8.43676 -10.8402 11.8352
head -0.252956 -5.49165 4.46071
rclavicle 2.48481e-016 -7.95139e-015
rhumerus 54.5899 7.2536 -21.7922
rradius 39.8847
rwrist 4.45921
rhand -26.3831 12.001
rfingers 7.12502
rthumb 0.175776 -17.9787
lclavicle 2.48481e-016 -7.95139e-015
lhumerus -13.1429 -18.7537 82.3505
lradius 19.8306
lwrist 17.6788
lhand -13.4352 -7.6012
lfingers 7.12502
lthumb 12.6737 21.9943
rfemur 10.6418 3.25767 26.3644
rtibia 29.9777
rfoot -11.5621 -1.93061
rtoes -23.2152
lfemur -6.43375 4.04674 -12.3018
ltibia 27.7414
lfoot -5.24668 -10.9015
ltoes -5.25512
76
root -21.1576 17.5987 -0.105564 83.4371 -81.9542 -90.9009
lowerback 3.78478 2.41131 8.27795
upperback 2.9266 3.39499 -1.36048
thorax 1.4948 1.84627 -6.12897
lowerneck -8.46235 -8.50908 -5.06725
upperneck -8.48423 -10.8934 11.8825
head -0.238016 -5.51945 4.45591
rclavicle 9.51682e-015 -1.59028e-014
rhumerus 55.0909 7.14498 -20.8703
rradius 39.0949
rwrist 4.06532
rhand -26.6007 11.7018
rfingers 7.12502
rthumb -0.0344589 -18.2779
lclavicle 9.51682e-015 -1.59028e-014
lhumerus -12.9992 -19.1637 82.3597
lradius 20.0819
lwrist 17.975
lhand -13.5377 -7.51511
lfingers 7.12502
lthumb 12.5748 22.0864
rfemur 10.6328 3.16163 26.298
rtibia 30.0142
rfoot -11.4911 -1.84259
rtoes -23.3
lfemur -6.4063 4.02033 -12.3285
ltibia 27.7627
lfoot -5.33069 -10.9147
ltoes -5.04685
77
root -21.1816 17.5994 -0.0915969 83.3532 -81.9136 -90.7694
lowerback 3.81438 2.4292 8.34411
upperback 2.92947 3.42308 -1.39258
thorax 1.49269 1.86196 -6.20169
lowerneck -8.61189 -8.54997 -5.05209
upperneck -8.51565 -10.9465 11.9518
head -0.2142 -5.54535 4.46796
rclavicle -1.81888e-014 -7.95139e-015
rhumerus 55.566 7.07268 -19.8536
rradius 38.3641
rwrist 3.63927
rhand -26.7746 11.3346
rfingers 7.12502
rthumb -0.202425 -18.6451
lclavicle -1.81888e-014 -7.95139e-015
lhumerus -12.9524 -19.478 82.4048
lradius 20.4052
lwrist 18.1463
lhand -13.6328 -7.40808
lfingers 7.12502
lthumb 12.4832 22.1991
rfemur 10.631 3.09676 26.2596
rtibia 30.0426
rfoot -11.4332 -1.77594
rtoes -23.3233
lfemur -6.37289 3.94732 -12.3422
ltibia 27.7908
lfoot -5.45609 -10.8727
ltoes -4.89134
78
root -21.2046 17.5991 -0.0772935 83.2794 -81.8666 -90.6496
lowerback 3.83961 2.45071 8.4355
upperback 2.94669 3.4556 -1.44137
thorax 1.51184 1.8819 -6.30564
lowerneck -8.80807 -8.58999 -4.97655
upperneck -8.54161 -11.0036 11.9982
head -0.185538 -5.57379 4.45801
rclavicle 4.56211e-014 1.43125e-014
rhumerus 56.0149 6.99386 -18.8083
rradius 37.6527
rwrist 3.16654
rhand -26.9427 10.8999
rfingers 7.12502
rthumb -0.364788 -19.0795
lclavicle 4.56211e-014 1.43125e-014
lhumerus -12.9562 -19.8234 82.4239
lradius 20.8632
lwrist 18.3796
lhand -13.6723 -7.28481
lfingers 7.12502
lthumb 12.4451 22.3247
rfemur 10.6249 3.00662 26.2153
rtibia 30.0785
rfoot -11.3677 -1.6851
rtoes -23.2889
lfemur -6.34145 3.91879 -12.3443
ltibia 27.8099
lfoot -5.54452 -10.8705
ltoes -4.71197
